<svg xmlns="http://www.w3.org/2000/svg" width="16" height="16" version="1.1" xmlns:xlink="http://www.w3.org/1999/xlink">
	<style>.title-text {
      font: bold 1.5px sans-serif;
		}</style>
	<defs>
		<path id="baseStar" d="M0-1Q0 0-1 0 0 0 0 1 0 0 1 0 0 0 0-1Z" fill="currentColor" stroke="none"/>
		<path id="baseWave" d="M16 0C14 0 16 2 14 2S14 4 12 4 12 6 10 6 10 8 8 8 8 10 6 10 6 12 4 12 4 14 2 14 2 16 0 16L-16 16-16 0"/>
		<linearGradient id="nightGradient" gradientTransform="rotate(90)">
			<stop offset="20%" stop-color="#050057"/>
			<stop offset="90%" stop-color="#0300d7"/>
		</linearGradient>
		<linearGradient id="rainbowGradient" gradientTransform="rotate(45)">
			<stop offset=".14" stop-color="red"/>
			<stop offset=".28" stop-color="orange"/>
			<stop offset=".42" stop-color="#ff0"/>
			<stop offset=".56" stop-color="#0f0"/>
			<stop offset=".7" stop-color="#0ff"/>
			<stop offset=".84" stop-color="#00f"/>
			<stop offset=".98" stop-color="purple"/>
		</linearGradient>
		<g id="wavyRainbow">
			<use href="#baseWave" fill="#0f0" x="16"/>
			<use href="#baseWave" fill="#0ff" x="14"/>
			<use href="#baseWave" fill="#00f" x="12"/>
			<use href="#baseWave" fill="purple" x="10"/>
			<use href="#baseWave" fill="#00f" x="8"/>
			<use href="#baseWave" fill="#0ff" x="6"/>
			<use href="#baseWave" fill="#0f0" x="4"/>
			<use href="#baseWave" fill="#ff0" x="2"/>
			<use href="#baseWave" fill="orange" x="0"/>
			<use href="#baseWave" fill="red" x="-2"/>
			<use href="#baseWave" fill="orange" x="-4"/>
			<use href="#baseWave" fill="#ff0" x="-6"/>
			<use href="#baseWave" fill="#0f0" x="-8"/>
			<use href="#baseWave" fill="#0ff" x="-10"/>
			<use href="#baseWave" fill="#00f" x="-12"/>
			<use href="#baseWave" fill="purple" x="-14"/>
		</g>
		<filter id="lightBlur" x="0" y="0">
			<feGaussianBlur in="SourceGraphic" stdDeviation="1.7"/>
		</filter>
	</defs>
	<mask id="tabMask">
		<g transform="scale(4) translate(-2 .65)">
			<rect width="16" height="2.15" fill="#fff" stroke="#fff" stroke-width=".2" stroke-linejoin="bevel" rx=".25" ry=".25"/>
		</g>
	</mask>
	<use href="#wavyRainbow" x="0" y="-1" transform="scale(1.3)" filter="url(#lightBlur)" mask="url(#tabMask)"/>
	<g id="tab" transform="scale(4) translate(-2 .45)">
		<rect width="16" height="3" stroke="#000" stroke-width=".2" stroke-linejoin="bevel" rx=".25" ry=".25"/>
		<rect width="1.5" height="1.5" fill="#fff" stroke="#000" stroke-width=".2" x="1" y=".75" stroke-linejoin="bevel" rx=".25" ry=".25"/>
	</g>
</svg>