<svg xmlns="http://www.w3.org/2000/svg" width="16" height="16">
	<defs>
		<path id="baseStar" d="M0-1Q0 0-1 0 0 0 0 1 0 0 1 0 0 0 0-1Z" fill="currentColor" stroke="none"/>
		<path id="baseWave" d="M16 0C14 0 16 2 14 2S14 4 12 4 12 6 10 6 10 8 8 8 8 10 6 10 6 12 4 12 4 14 2 14 2 16 0 16L-16 16-16 0"/>
		<filter id="blurEdges" x="0" y="0">
			<feGaussianBlur in="SourceGraphic" stdDeviation="10"/>
		</filter>
		<mask id="baseWaveBlurred">
			<use href="#baseWave" x="-8" y="0" filter="url(#blurEdges)" fill="white"/>
		</mask>
		<linearGradient id="nightGradient" gradientTransform="rotate(90 0 0)">
			<stop offset="20%" stop-color="#050057"/>
			<stop offset="90%" stop-color="#0300d7"/>
		</linearGradient>
		<linearGradient id="rainbowGradient" gradientTransform="rotate(45 0 0)">
			<stop offset="0.14" stop-color="red"/>
			<stop offset="0.28" stop-color="orange"/>
			<stop offset="0.42" stop-color="yellow"/>
			<stop offset="0.56" stop-color="lime"/>
			<stop offset="0.7" stop-color="aqua"/>
			<stop offset="0.84" stop-color="blue"/>
			<stop offset="0.98" stop-color="purple"/>
		</linearGradient>
	</defs>
	<g id="backgrounds">
		<rect width="16" height="16" fill="url(#nightGradient)"/>
		<rect width="16" height="16" fill="url(#rainbowGradient)"/>
		<g id="wavyRainbow">
			<use href="#baseWave" mask="url(#baseWaveBlurred)" fill="lime" x="16"/>
			<use href="#baseWave" mask="url(#baseWaveBlurred)" fill="yellow" x="14"/>
			<use href="#baseWave" mask="url(#baseWaveBlurred)" fill="orange" x="12"/>
			<use href="#baseWave" mask="url(#baseWaveBlurred)" fill="red" x="10"/>
			<use href="#baseWave" mask="url(#baseWaveBlurred)" fill="orange" x="8"/>
			<use href="#baseWave" mask="url(#baseWaveBlurred)" fill="yellow" x="6"/>
			<use href="#baseWave" mask="url(#baseWaveBlurred)" fill="lime" x="4"/>
			<use href="#baseWave" mask="url(#baseWaveBlurred)" fill="aqua" x="2"/>
			<use href="#baseWave" mask="url(#baseWaveBlurred)" fill="blue" x="0"/>
			<use href="#baseWave" mask="url(#baseWaveBlurred)" fill="purple" x="-2"/>
			<use href="#baseWave" mask="url(#baseWaveBlurred)" fill="blue" x="-4"/>
			<use href="#baseWave" mask="url(#baseWaveBlurred)" fill="aqua" x="-6"/>
			<use href="#baseWave" mask="url(#baseWaveBlurred)" fill="lime" x="-8"/>
			<use href="#baseWave" mask="url(#baseWaveBlurred)" fill="yellow" x="-10"/>
			<use href="#baseWave" mask="url(#baseWaveBlurred)" fill="orange" x="-12"/>
			<use href="#baseWave" mask="url(#baseWaveBlurred)" fill="red" x="-14"/>
		</g>
	</g>
	<g id="stars">
		<use href="#baseStar" transform="translate(4 4) scale(2 2)" color="yellow"/>
		<use href="#baseStar" transform="translate(12 12) scale(2 2)" color="yellow"/>
		<use href="#baseStar" transform="translate(4 12) scale(3 3)" color="yellow"/>
		<use href="#baseStar" transform="translate(12 4) scale(3 3)" color="yellow"/>
	</g>
</svg>