<svg width="24" height="24" stroke-width="1.5" viewBox="0 0 24 24" fill="none" xmlns="http://www.w3.org/2000/svg" color="#000"><path d="M19.6224 10.3954 18.5247 7.7448 20 6 18 4 16.2647 5.48295 13.5578 4.36974l0-2.36974H10.3491L10.3491 4.40113 7.70441 5.51596 6 4 4 6 5.45337 7.78885 4.3725 10.4463l-2.3725 0V13.6555L4.40111 13.6555 5.51575 16.2997 4 18 6 20 7.79116 18.5403 10.397 19.6123 10.397 22H13.6045L13.6045 19.6132 16.2551 18.5155C16.6969 18.8313 18 20 18 20L20 18 18.5159 16.2494 19.6139 13.598 21.9999 13.598 22 10.3954 19.6224 10.3954ZM12 15C10.343 15 9 13.657 9 12 9 10.343 10.343 9 12 9 13.657 9 15 10.343 15 12 15 13.657 13.657 15 12 15Z" stroke="#707070" stroke-width="1.5" stroke-linecap="round" stroke-linejoin="round" fill="#c8cdcb" fill-mode="evenodd"/></svg>